<?xml version="1.0" standalone="no"?>
<!DOCTYPE svg PUBLIC "-//W3C//DTD SVG 20010904//EN"
 "http://www.w3.org/TR/2001/REC-SVG-20010904/DTD/svg10.dtd">
<svg version="1.0" xmlns="http://www.w3.org/2000/svg"
 width="64.000000pt" height="64.000000pt" viewBox="0 0 64.000000 64.000000"
 preserveAspectRatio="xMidYMid meet">

<g transform="translate(0.000000,64.000000) scale(0.100000,-0.100000)"
fill="#000000" stroke="none">
<path d="M185 542 c-68 -33 -127 -93 -158 -161 -31 -65 -30 -187 0 -254 26
-57 44 -65 90 -43 46 22 42 51 -6 51 -30 0 -36 4 -47 35 -15 43 -17 120 -4
155 9 22 13 24 31 15 11 -7 27 -9 35 -6 22 9 16 34 -12 49 l-26 14 33 38 c32
36 117 85 149 85 9 0 21 -13 27 -30 14 -38 32 -38 46 1 13 33 7 32 93 12 34
-8 38 24 7 44 -19 13 -52 19 -113 21 -77 3 -91 0 -145 -26z"/>
<path d="M412 412 c-154 -107 -162 -115 -162 -157 0 -61 67 -98 112 -62 25 19
188 254 188 270 0 34 -34 22 -138 -51z m-35 -122 c-42 -60 -77 -78 -77 -40 0
17 92 99 112 100 5 0 -11 -27 -35 -60z"/>
<path d="M568 388 c-3 -7 1 -30 8 -52 17 -47 17 -119 0 -166 -11 -31 -17 -35
-47 -35 -48 0 -52 -29 -6 -51 46 -22 64 -14 90 43 40 89 25 261 -25 271 -9 2
-18 -3 -20 -10z"/>
</g>
</svg>
